<?xml version="1.0" encoding="UTF-8"?>
<svg id="Ebene_1" xmlns="http://www.w3.org/2000/svg" version="1.1" viewBox="0 0 113.39 113.39">
  <!-- Generator: Adobe Illustrator 29.8.1, SVG Export Plug-In . SVG Version: 2.1.1 Build 2)  -->
  <defs>
    <style>
      .st0 {
        fill: #d0eaf8;
      }

      .st1 {
        fill: #2ebbe1;
      }
    </style>
  </defs>
  <path class="st0" d="M103.92,34.01c0-3.15-1.68-6.07-4.41-7.64L61.5,4.42c-2.73-1.58-6.09-1.58-8.82,0l-14.43,8.42c-.57.33-.49.99-.16,1.55,5.14,8.6,5.88,14.78,5.22,22.96-.04.44.46.73.85.51l10.97-6.33c1.39-.8,3.1-.8,4.49,0l17.71,10.23c1.39.8,2.24,2.28,2.24,3.89,0,0-.04,15.84-.1,20.33-.01.76.29,1.49.83,2.03l17.3,17.3c.51.51,1.29.61,1.91.25h0c2.73-1.58,4.41-4.49,4.41-7.64v-43.89Z"/>
  <path class="st1" d="M103.41,105.23l-45.4-45.4c-1.26-1.26-3.41-.37-3.41,1.41v16.87c0,.8-.86,1.29-1.55.89l-15.65-9.03c-1.39-.8-2.24-2.28-2.24-3.89v-16.29c0-.68-.49-1.27-1.16-1.41-12.66-2.71-19.18-8.56-21.91-12.16-.52-.69-1.62-.34-1.63.52-.14,10.11-.22,41.14-.22,41.14,0,3.15,1.68,6.07,4.41,7.64l38.01,21.94c1.53.88,3.25,1.25,4.95,1.15h44.37c1.78,0,2.67-2.15,1.41-3.41Z"/>
  <path class="st1" d="M28.42,37.08c1.9.56,3.7.95,5.28,1.22.75.13,1.45-.4,1.53-1.15.68-5.86.57-14.31-3.69-19.99-3.95-5.28-11.62-7.83-17.66-8.95-.75-.14-1.47.37-1.56,1.14-.74,5.97-.92,14.32,3.2,19.82,3.27,4.36,8.82,6.72,12.89,7.92Z"/>
</svg>